<?xml version="1.0" encoding="UTF-8" standalone="no"?>
<!DOCTYPE svg PUBLIC "-//W3C//DTD SVG 1.1//EN"
 "http://www.w3.org/Graphics/SVG/1.1/DTD/svg11.dtd">
<!-- Generated by graphviz version 2.43.0 (0)
 -->
<!-- Title: G Pages: 1 -->
<svg width="650pt" height="448pt"
 viewBox="0.00 0.00 650.43 448.00" xmlns="http://www.w3.org/2000/svg" xmlns:xlink="http://www.w3.org/1999/xlink">
<g id="graph0" class="graph" transform="scale(1 1) rotate(0) translate(4 444)">
<title>G</title>
<polygon fill="white" stroke="transparent" points="-4,4 -4,-444 646.43,-444 646.43,4 -4,4"/>
<!-- scats -->
<g id="node1" class="node">
<title>scats</title>
<polygon fill="none" stroke="black" points="141.54,-390.5 88.54,-390.5 88.54,-337.5 141.54,-337.5 141.54,-390.5"/>
<text text-anchor="middle" x="115.04" y="-360.3" font-family="Times,serif" font-size="14.00">scats</text>
</g>
<!-- wa_scat -->
<g id="node5" class="node">
<title>wa_scat</title>
<polygon fill="none" stroke="black" points="171.04,-252 103.85,-234 171.04,-216 238.24,-234 171.04,-252"/>
<text text-anchor="middle" x="171.04" y="-230.3" font-family="Times,serif" font-size="14.00">wa_scat</text>
</g>
<!-- scats&#45;&gt;wa_scat -->
<g id="edge2" class="edge">
<title>scats&#45;&gt;wa_scat</title>
<path fill="none" stroke="black" d="M126.24,-337.4C136.14,-314.78 150.48,-282 160.26,-259.66"/>
<polygon fill="black" stroke="black" points="163.46,-261.06 164.26,-250.49 157.05,-258.25 163.46,-261.06"/>
</g>
<!-- scats_list_mat -->
<g id="node7" class="node">
<title>scats_list_mat</title>
<ellipse fill="none" stroke="black" cx="76.04" cy="-18" rx="76.09" ry="18"/>
<text text-anchor="middle" x="76.04" y="-14.3" font-family="Times,serif" font-size="14.00">scats_list_mat</text>
</g>
<!-- scats&#45;&gt;scats_list_mat -->
<g id="edge1" class="edge">
<title>scats&#45;&gt;scats_list_mat</title>
<path fill="none" stroke="black" d="M109.64,-337.09C105.14,-314.67 98.87,-281.32 95.04,-252 85.36,-177.8 79.77,-89.62 77.4,-46.09"/>
<polygon fill="black" stroke="black" points="80.89,-45.82 76.86,-36.02 73.9,-46.19 80.89,-45.82"/>
</g>
<!-- wa_results -->
<g id="node2" class="node">
<title>wa_results</title>
<polygon fill="none" stroke="black" points="254.54,-410.5 161.54,-410.5 161.54,-317.5 254.54,-317.5 254.54,-410.5"/>
<text text-anchor="middle" x="208.04" y="-360.3" font-family="Times,serif" font-size="14.00">wa_results</text>
</g>
<!-- wa_results&#45;&gt;wa_scat -->
<g id="edge3" class="edge">
<title>wa_results&#45;&gt;wa_scat</title>
<path fill="none" stroke="black" d="M194.79,-317.15C189.31,-298.2 183.17,-276.94 178.5,-260.8"/>
<polygon fill="black" stroke="black" points="181.81,-259.63 175.67,-251 175.08,-261.58 181.81,-259.63"/>
</g>
<!-- wa_dw -->
<g id="node6" class="node">
<title>wa_dw</title>
<polygon fill="none" stroke="black" points="268.04,-180 208.05,-162 268.04,-144 328.03,-162 268.04,-180"/>
<text text-anchor="middle" x="268.04" y="-158.3" font-family="Times,serif" font-size="14.00">wa_dw</text>
</g>
<!-- wa_results&#45;&gt;wa_dw -->
<g id="edge4" class="edge">
<title>wa_results&#45;&gt;wa_dw</title>
<path fill="none" stroke="black" d="M225.27,-317.45C232.49,-297.52 240.67,-273.76 247.04,-252 253.17,-231.08 258.76,-207.01 262.63,-189.17"/>
<polygon fill="black" stroke="black" points="266.1,-189.72 264.76,-179.21 259.25,-188.26 266.1,-189.72"/>
</g>
<!-- dead_wolves_value -->
<g id="node3" class="node">
<title>dead_wolves_value</title>
<polygon fill="none" stroke="black" points="462.04,-440 310.04,-440 310.04,-288 462.04,-288 462.04,-440"/>
<text text-anchor="middle" x="386.04" y="-360.3" font-family="Times,serif" font-size="14.00">dead_wolves_value</text>
</g>
<!-- dead_wolves_mat -->
<g id="node9" class="node">
<title>dead_wolves_mat</title>
<ellipse fill="none" stroke="black" cx="386.04" cy="-234" rx="91.78" ry="18"/>
<text text-anchor="middle" x="386.04" y="-230.3" font-family="Times,serif" font-size="14.00">dead_wolves_mat</text>
</g>
<!-- dead_wolves_value&#45;&gt;dead_wolves_mat -->
<g id="edge7" class="edge">
<title>dead_wolves_value&#45;&gt;dead_wolves_mat</title>
<path fill="none" stroke="black" d="M386.04,-287.8C386.04,-278.78 386.04,-270.06 386.04,-262.39"/>
<polygon fill="black" stroke="black" points="389.54,-262.34 386.04,-252.34 382.54,-262.34 389.54,-262.34"/>
</g>
<!-- genotypes -->
<g id="node4" class="node">
<title>genotypes</title>
<polygon fill="none" stroke="black" points="579.04,-409 489.04,-409 489.04,-319 579.04,-319 579.04,-409"/>
<text text-anchor="middle" x="534.04" y="-360.3" font-family="Times,serif" font-size="14.00">genotypes</text>
</g>
<!-- wa_genetic_samples_mat -->
<g id="node10" class="node">
<title>wa_genetic_samples_mat</title>
<ellipse fill="none" stroke="black" cx="515.04" cy="-18" rx="127.28" ry="18"/>
<text text-anchor="middle" x="515.04" y="-14.3" font-family="Times,serif" font-size="14.00">wa_genetic_samples_mat</text>
</g>
<!-- genotypes&#45;&gt;wa_genetic_samples_mat -->
<g id="edge13" class="edge">
<title>genotypes&#45;&gt;wa_genetic_samples_mat</title>
<path fill="none" stroke="black" d="M532.54,-318.59C530.47,-261.49 526.26,-159.28 520.04,-72 519.45,-63.67 518.65,-54.61 517.87,-46.38"/>
<polygon fill="black" stroke="black" points="521.33,-45.78 516.86,-36.17 514.36,-46.46 521.33,-45.78"/>
</g>
<!-- genotypes_list_mat -->
<g id="node11" class="node">
<title>genotypes_list_mat</title>
<ellipse fill="none" stroke="black" cx="270.04" cy="-18" rx="100.18" ry="18"/>
<text text-anchor="middle" x="270.04" y="-14.3" font-family="Times,serif" font-size="14.00">genotypes_list_mat</text>
</g>
<!-- genotypes&#45;&gt;genotypes_list_mat -->
<g id="edge14" class="edge">
<title>genotypes&#45;&gt;genotypes_list_mat</title>
<path fill="none" stroke="black" d="M524.72,-318.71C517.23,-288.53 504.97,-248.34 487.04,-216 446.38,-142.64 429.82,-125.29 365.04,-72 349.78,-59.45 331.13,-48.3 314.4,-39.51"/>
<polygon fill="black" stroke="black" points="315.84,-36.31 305.34,-34.87 312.65,-42.55 315.84,-36.31"/>
</g>
<!-- wa_scat_dw_mat -->
<g id="node8" class="node">
<title>wa_scat_dw_mat</title>
<ellipse fill="none" stroke="black" cx="268.04" cy="-90" rx="87.99" ry="18"/>
<text text-anchor="middle" x="268.04" y="-86.3" font-family="Times,serif" font-size="14.00">wa_scat_dw_mat</text>
</g>
<!-- wa_scat&#45;&gt;wa_scat_dw_mat -->
<g id="edge6" class="edge">
<title>wa_scat&#45;&gt;wa_scat_dw_mat</title>
<path fill="none" stroke="black" d="M173.22,-216.25C176.35,-197.29 183.54,-166.17 199.04,-144 207.47,-131.95 219.47,-121.4 231.1,-112.95"/>
<polygon fill="black" stroke="black" points="233.22,-115.74 239.45,-107.18 229.24,-109.98 233.22,-115.74"/>
</g>
<!-- wa_dw&#45;&gt;wa_scat_dw_mat -->
<g id="edge5" class="edge">
<title>wa_dw&#45;&gt;wa_scat_dw_mat</title>
<path fill="none" stroke="black" d="M268.04,-143.7C268.04,-135.98 268.04,-126.71 268.04,-118.11"/>
<polygon fill="black" stroke="black" points="271.54,-118.1 268.04,-108.1 264.54,-118.1 271.54,-118.1"/>
</g>
<!-- wa_scat_dw_mat&#45;&gt;scats_list_mat -->
<g id="edge10" class="edge">
<title>wa_scat_dw_mat&#45;&gt;scats_list_mat</title>
<path fill="none" stroke="black" d="M226.85,-73.98C197,-63.1 156.5,-48.33 124.99,-36.85"/>
<polygon fill="black" stroke="black" points="126.12,-33.53 115.52,-33.39 123.72,-40.11 126.12,-33.53"/>
</g>
<!-- wa_scat_dw_mat&#45;&gt;wa_genetic_samples_mat -->
<g id="edge11" class="edge">
<title>wa_scat_dw_mat&#45;&gt;wa_genetic_samples_mat</title>
<path fill="none" stroke="black" d="M317.43,-75C355.88,-64.11 409.54,-48.9 451.24,-37.08"/>
<polygon fill="black" stroke="black" points="452.36,-40.4 461.02,-34.31 450.45,-33.67 452.36,-40.4"/>
</g>
<!-- wa_scat_dw_mat&#45;&gt;genotypes_list_mat -->
<g id="edge12" class="edge">
<title>wa_scat_dw_mat&#45;&gt;genotypes_list_mat</title>
<path fill="none" stroke="black" d="M268.54,-71.7C268.76,-63.98 269.02,-54.71 269.27,-46.11"/>
<polygon fill="black" stroke="black" points="272.77,-46.2 269.55,-36.1 265.77,-46 272.77,-46.2"/>
</g>
<!-- dead_wolves_mat&#45;&gt;wa_dw -->
<g id="edge8" class="edge">
<title>dead_wolves_mat&#45;&gt;wa_dw</title>
<path fill="none" stroke="black" d="M358.68,-216.76C339.84,-205.59 314.89,-190.79 295.93,-179.55"/>
<polygon fill="black" stroke="black" points="297.55,-176.44 287.17,-174.34 293.98,-182.46 297.55,-176.44"/>
</g>
<!-- dead_wolves_mat&#45;&gt;wa_genetic_samples_mat -->
<g id="edge9" class="edge">
<title>dead_wolves_mat&#45;&gt;wa_genetic_samples_mat</title>
<path fill="none" stroke="black" d="M396.38,-215.85C418.93,-178.44 472.65,-89.32 499.38,-44.98"/>
<polygon fill="black" stroke="black" points="502.49,-46.6 504.66,-36.23 496.5,-42.99 502.49,-46.6"/>
</g>
</g>
</svg>
